<svg width="31" height="31" viewBox="0 0 31 31" fill="none" xmlns="http://www.w3.org/2000/svg">
<rect x="0.3396" y="0.174896" width="29.9011" height="29.9011" rx="14.9505" fill="#D1E9FF"/>
<path d="M16.8972 14.6894C17.1803 14.3355 17.3361 13.8967 17.3395 13.4435C17.3395 12.8999 17.1236 12.3787 16.7392 11.9943C16.3549 11.61 15.8336 11.394 15.29 11.394C14.7465 11.394 14.2252 11.61 13.8409 11.9943C13.4565 12.3787 13.2406 12.8999 13.2406 13.4435C13.244 13.8967 13.3997 14.3355 13.6829 14.6894C13.1276 15.0273 12.692 15.5305 12.437 16.1284C12.4013 16.2042 12.3813 16.2865 12.3782 16.3703C12.375 16.4541 12.3889 16.5376 12.4188 16.6159C12.4487 16.6942 12.4941 16.7657 12.5524 16.826C12.6106 16.8864 12.6804 16.9343 12.7575 16.9671C12.8347 16.9998 12.9177 17.0166 13.0016 17.0165C13.0854 17.0163 13.1684 16.9993 13.2454 16.9664C13.3225 16.9334 13.3922 16.8853 13.4502 16.8248C13.5083 16.7642 13.5535 16.6927 13.5832 16.6143C13.7264 16.2796 13.9642 15.994 14.2674 15.7926C14.5706 15.5912 14.926 15.4827 15.29 15.4805V15.4805C15.6551 15.4815 16.0119 15.5894 16.3163 15.7909C16.6208 15.9924 16.8595 16.2786 17.0031 16.6143C17.0508 16.7269 17.1306 16.8229 17.2325 16.8905C17.3344 16.9581 17.454 16.9942 17.5762 16.9943C17.6596 16.9927 17.7419 16.9758 17.8192 16.9444C17.9711 16.8799 18.0912 16.7577 18.1531 16.6047C18.215 16.4517 18.2136 16.2804 18.1493 16.1284C17.8927 15.5296 17.4548 15.0263 16.8972 14.6894V14.6894ZM15.29 14.2346C15.1308 14.2346 14.9752 14.1873 14.843 14.0988C14.7107 14.0102 14.6077 13.8843 14.547 13.7371C14.4864 13.5899 14.4709 13.428 14.5024 13.272C14.5339 13.1159 14.6111 12.9727 14.7241 12.8606C14.8371 12.7485 14.9808 12.6724 15.1371 12.6421C15.2934 12.6118 15.4552 12.6286 15.6019 12.6904C15.7486 12.7522 15.8737 12.8562 15.9612 12.9891C16.0488 13.1221 16.0949 13.2781 16.0936 13.4373C16.092 13.6493 16.0066 13.8521 15.8561 14.0015C15.7056 14.1508 15.5021 14.2346 15.29 14.2346V14.2346ZM19.0277 8.89604H11.5524C11.0568 8.89604 10.5814 9.09293 10.231 9.44341C9.88049 9.79388 9.68359 10.2692 9.68359 10.7649V17.6172C9.68359 18.1128 9.88049 18.5882 10.231 18.9386C10.5814 19.2891 11.0568 19.486 11.5524 19.486H13.1658L14.8478 21.1742C14.906 21.2319 14.975 21.2776 15.0509 21.3086C15.1268 21.3396 15.2081 21.3553 15.29 21.3548C15.4385 21.3548 15.5821 21.3018 15.695 21.2053L17.7008 19.486H19.0277C19.5233 19.486 19.9987 19.2891 20.3491 18.9386C20.6996 18.5882 20.8965 18.1128 20.8965 17.6172V10.7649C20.8965 10.2692 20.6996 9.79388 20.3491 9.44341C19.9987 9.09293 19.5233 8.89604 19.0277 8.89604ZM19.6506 17.6172C19.6506 17.7824 19.585 17.9409 19.4682 18.0577C19.3513 18.1745 19.1929 18.2401 19.0277 18.2401H17.4703C17.3219 18.2401 17.1783 18.2931 17.0654 18.3896L15.3212 19.8847L13.8635 18.4208C13.8053 18.363 13.7363 18.3174 13.6604 18.2864C13.5845 18.2554 13.5032 18.2397 13.4212 18.2401H11.5524C11.3872 18.2401 11.2288 18.1745 11.1119 18.0577C10.9951 17.9409 10.9295 17.7824 10.9295 17.6172V10.7649C10.9295 10.5996 10.9951 10.4412 11.1119 10.3244C11.2288 10.2076 11.3872 10.1419 11.5524 10.1419H19.0277C19.1929 10.1419 19.3513 10.2076 19.4682 10.3244C19.585 10.4412 19.6506 10.5996 19.6506 10.7649V17.6172Z" fill="#175CD3"/>
</svg>
