<svg width="19" height="21" viewBox="0 0 19 21" fill="none" xmlns="http://www.w3.org/2000/svg">
<path opacity="0.7" d="M4.1833 17.3713H2.81903C1.81441 17.3713 1 16.5569 1 15.5522V2.81903C1 1.81441 1.81441 1 2.81903 1H15.5522C16.5569 1 17.3713 1.81441 17.3713 2.81903V15.5522C17.3713 16.5569 16.5569 17.3713 15.5522 17.3713H14.188" stroke="#1DBF7B" stroke-width="1.81903" stroke-linecap="round" stroke-linejoin="round"/>
<path d="M9.18538 16.4617C10.6923 16.4617 11.9139 15.2401 11.9139 13.7332C11.9139 12.2263 10.6923 11.0047 9.18538 11.0047C7.67845 11.0047 6.45684 12.2263 6.45684 13.7332C6.45684 15.2401 7.67845 16.4617 9.18538 16.4617ZM9.18538 16.4617L9.20488 16.4616L6.30101 19.3654L3.72852 16.7929L6.47471 14.0467M9.18538 16.4617L12.0893 19.3654L14.6618 16.7929L11.9156 14.0467M6.45684 4.63806H11.9139M4.63781 7.82136H13.733" stroke="#1DBF7B" stroke-width="1.81903" stroke-linecap="round" stroke-linejoin="round"/>
</svg>
