<svg width="31" height="31" viewBox="0 0 31 31" fill="none" xmlns="http://www.w3.org/2000/svg">
<rect x="0.3396" y="0.967148" width="29.9011" height="29.9011" rx="14.9505" fill="#FCE7F6"/>
<path d="M16.8337 17.7135C16.3653 17.7592 15.8935 17.6733 15.4712 17.4655C15.3756 17.3889 15.2966 17.2936 15.2392 17.1854C15.1819 17.0771 15.1473 16.9583 15.1376 16.8362C15.1374 16.8179 15.1336 16.7998 15.1264 16.7831C15.1192 16.7663 15.1087 16.7511 15.0956 16.7384C15.0824 16.7257 15.0669 16.7157 15.0499 16.709C15.0329 16.7023 15.0147 16.6991 14.9965 16.6995C14.7992 16.6971 14.6021 16.6976 14.4049 16.6992C14.3704 16.6957 14.336 16.7059 14.309 16.7276C14.282 16.7494 14.2647 16.7808 14.2608 16.8153C14.2495 17.0295 14.2857 17.2436 14.3668 17.4422C14.4479 17.6409 14.5719 17.8191 14.7299 17.9643C15.1287 18.2755 15.6129 18.4577 16.1179 18.4864C16.6442 18.5475 17.1767 18.5249 17.6959 18.4195C18.0945 18.3451 18.46 18.1481 18.7413 17.8561C18.8968 17.6643 19.0011 17.4362 19.0442 17.1931C19.0874 16.95 19.068 16.7 18.988 16.4664C18.9208 16.3018 18.8168 16.1547 18.6839 16.0365C18.5511 15.9183 18.3929 15.8322 18.2215 15.7846C17.4237 15.5046 16.5618 15.5258 15.7485 15.3131C15.6073 15.2686 15.4347 15.2204 15.3718 15.0709C15.3354 14.9657 15.3329 14.8517 15.3647 14.745C15.3965 14.6384 15.4608 14.5443 15.5488 14.4761C15.8042 14.3302 16.095 14.2578 16.389 14.2669C16.788 14.2294 17.1903 14.2869 17.5627 14.4349C17.6746 14.5007 17.7709 14.59 17.8447 14.6968C17.9186 14.8035 17.9684 14.925 17.9906 15.0529C17.9916 15.0907 18.0068 15.1267 18.033 15.1538C18.0592 15.181 18.0947 15.1974 18.1323 15.1997C18.3281 15.2037 18.524 15.2008 18.7198 15.2011C18.7538 15.2051 18.7881 15.1968 18.8164 15.1776C18.8447 15.1584 18.8651 15.1296 18.8739 15.0966C18.8756 14.8325 18.8084 14.5725 18.6787 14.3424C18.549 14.1123 18.3615 13.92 18.1347 13.7847C17.5086 13.4958 16.8137 13.3894 16.1299 13.4779V13.4779C15.6289 13.4984 15.1503 13.6908 14.7743 14.0226C14.6017 14.2086 14.4849 14.4393 14.437 14.6885C14.3892 14.9377 14.4123 15.1954 14.5037 15.4321C14.5749 15.5906 14.6796 15.7319 14.8107 15.846C14.9417 15.9602 15.0959 16.0446 15.2627 16.0935C16.0579 16.3807 16.9294 16.2885 17.7323 16.5425C17.8888 16.5956 18.071 16.6768 18.1189 16.8509C18.1447 16.9553 18.1427 17.0645 18.1133 17.1679C18.0838 17.2713 18.0278 17.3652 17.9509 17.4403C17.617 17.6477 17.2257 17.7434 16.8337 17.7135V17.7135ZM20.4585 12.4526C18.906 11.5747 17.3532 10.6975 15.7999 9.82119C15.6441 9.73405 15.4685 9.68829 15.29 9.68829C15.1114 9.68829 14.9358 9.73405 14.78 9.82119C13.2328 10.6949 11.6855 11.5685 10.1382 12.4421C9.98764 12.5242 9.86181 12.645 9.77372 12.7921C9.68563 12.9392 9.6385 13.1071 9.63721 13.2786V18.5575C9.63968 18.7321 9.68936 18.9027 9.78096 19.0513C9.87255 19.1999 10.0027 19.3209 10.1575 19.4016C10.602 19.6435 11.0338 19.9101 11.4863 20.1359C11.7475 20.2756 12.0376 20.3525 12.3337 20.3606C12.6297 20.3688 12.9236 20.3079 13.1921 20.1828C13.393 20.057 13.5564 19.8796 13.6654 19.6691C13.7744 19.4586 13.8249 19.2227 13.8118 18.9861C13.8152 17.2439 13.8123 15.5016 13.8131 13.7594C13.8161 13.7404 13.8151 13.7209 13.8101 13.7023C13.8051 13.6837 13.7962 13.6663 13.784 13.6514C13.7718 13.6364 13.7566 13.6242 13.7394 13.6156C13.7221 13.6069 13.7033 13.602 13.684 13.6011C13.4863 13.5979 13.2883 13.5992 13.0906 13.6006C13.0723 13.5989 13.0538 13.6012 13.0364 13.6072C13.019 13.6132 13.0031 13.6228 12.9897 13.6353C12.9763 13.6479 12.9657 13.6632 12.9586 13.6801C12.9515 13.6971 12.9481 13.7153 12.9485 13.7337C12.9459 15.4647 12.9491 17.1962 12.9469 18.9274C12.9474 19.0469 12.9113 19.1637 12.8435 19.2621C12.7757 19.3605 12.6794 19.4358 12.5676 19.4779C12.4388 19.516 12.3034 19.5265 12.1703 19.5087C12.0372 19.4908 11.9094 19.4451 11.7952 19.3746C11.3834 19.142 10.9716 18.9095 10.5599 18.6769C10.5326 18.664 10.5099 18.643 10.4949 18.6168C10.4799 18.5906 10.4733 18.5604 10.476 18.5304C10.476 16.7887 10.476 15.0471 10.476 13.3056C10.4731 13.2717 10.4811 13.2378 10.4986 13.2087C10.5162 13.1796 10.5425 13.1568 10.5738 13.1435C12.1159 12.275 13.6577 11.4056 15.1992 10.5352C15.226 10.5169 15.2577 10.5071 15.2901 10.5072C15.3225 10.5072 15.3542 10.5171 15.3809 10.5355C16.923 11.4043 18.465 12.2734 20.0069 13.1428C20.038 13.1564 20.0642 13.1794 20.0816 13.2086C20.099 13.2378 20.1069 13.2718 20.1041 13.3056C20.1039 15.047 20.1037 16.7885 20.1036 18.5301C20.1063 18.5603 20.0999 18.5907 20.0851 18.6171C20.0703 18.6436 20.0479 18.665 20.0208 18.6786C18.5023 19.5372 16.983 20.3946 15.4629 21.2507C15.3903 21.2912 15.3043 21.3563 15.2194 21.3073C14.8212 21.0819 14.428 20.8478 14.0312 20.6203C14.0109 20.6048 13.9865 20.5957 13.961 20.5942C13.9355 20.5927 13.9101 20.5988 13.8881 20.6118C13.7134 20.7142 13.5294 20.8 13.3386 20.8682C13.2526 20.903 13.1468 20.9129 13.0876 20.9927C13.1631 21.0748 13.2545 21.1406 13.3563 21.1862C13.8203 21.4549 14.2846 21.7233 14.7492 21.9915C14.9028 22.088 15.0795 22.1416 15.2609 22.1466C15.4422 22.1517 15.6216 22.108 15.7804 22.0202C17.3278 21.1477 18.8752 20.2747 20.4224 19.4014C20.5771 19.3206 20.7071 19.1996 20.7988 19.051C20.8904 18.9025 20.9402 18.732 20.943 18.5575V13.2786C20.9417 13.1105 20.8962 12.9458 20.8112 12.8008C20.7262 12.6558 20.6046 12.5358 20.4586 12.4526H20.4585Z" fill="#C11574"/>
</svg>
