<svg width="31" height="31" viewBox="0 0 31 31" fill="none" xmlns="http://www.w3.org/2000/svg">
<rect x="0.3396" y="0.759399" width="29.9011" height="29.9011" rx="14.9505" fill="#E0EAFF"/>
<path d="M9.68373 15.71H13.4214C13.5866 15.71 13.745 15.6443 13.8618 15.5275C13.9787 15.4107 14.0443 15.2522 14.0443 15.087V11.3494C14.0443 11.1842 13.9787 11.0257 13.8618 10.9089C13.745 10.7921 13.5866 10.7264 13.4214 10.7264H9.68373C9.51852 10.7264 9.36007 10.7921 9.24325 10.9089C9.12642 11.0257 9.06079 11.1842 9.06079 11.3494V15.087C9.06079 15.2522 9.12642 15.4107 9.24325 15.5275C9.36007 15.6443 9.51852 15.71 9.68373 15.71ZM10.3067 11.9723H12.7984V14.4641H10.3067V11.9723ZM15.9131 13.2182H20.8966C21.0618 13.2182 21.2203 13.1526 21.3371 13.0357C21.4539 12.9189 21.5196 12.7605 21.5196 12.5953C21.5196 12.43 21.4539 12.2716 21.3371 12.1548C21.2203 12.0379 21.0618 11.9723 20.8966 11.9723H15.9131C15.7479 11.9723 15.5895 12.0379 15.4726 12.1548C15.3558 12.2716 15.2902 12.43 15.2902 12.5953C15.2902 12.7605 15.3558 12.9189 15.4726 13.0357C15.5895 13.1526 15.7479 13.2182 15.9131 13.2182V13.2182ZM15.9131 19.4476H9.68373C9.51852 19.4476 9.36007 19.5132 9.24325 19.63C9.12642 19.7469 9.06079 19.9053 9.06079 20.0705C9.06079 20.2357 9.12642 20.3942 9.24325 20.511C9.36007 20.6278 9.51852 20.6935 9.68373 20.6935H15.9131C16.0783 20.6935 16.2368 20.6278 16.3536 20.511C16.4704 20.3942 16.5361 20.2357 16.5361 20.0705C16.5361 19.9053 16.4704 19.7469 16.3536 19.63C16.2368 19.5132 16.0783 19.4476 15.9131 19.4476ZM20.8966 16.9558H9.68373C9.51852 16.9558 9.36007 17.0215 9.24325 17.1383C9.12642 17.2551 9.06079 17.4136 9.06079 17.5788C9.06079 17.744 9.12642 17.9024 9.24325 18.0193C9.36007 18.1361 9.51852 18.2017 9.68373 18.2017H20.8966C21.0618 18.2017 21.2203 18.1361 21.3371 18.0193C21.4539 17.9024 21.5196 17.744 21.5196 17.5788C21.5196 17.4136 21.4539 17.2551 21.3371 17.1383C21.2203 17.0215 21.0618 16.9558 20.8966 16.9558ZM20.8966 14.4641H15.9131C15.7479 14.4641 15.5895 14.5297 15.4726 14.6465C15.3558 14.7634 15.2902 14.9218 15.2902 15.087C15.2902 15.2522 15.3558 15.4107 15.4726 15.5275C15.5895 15.6443 15.7479 15.71 15.9131 15.71H20.8966C21.0618 15.71 21.2203 15.6443 21.3371 15.5275C21.4539 15.4107 21.5196 15.2522 21.5196 15.087C21.5196 14.9218 21.4539 14.7634 21.3371 14.6465C21.2203 14.5297 21.0618 14.4641 20.8966 14.4641Z" fill="#3538CD"/>
</svg>
